<?xml version="1.0" encoding="UTF-8" standalone="no"?>
<!-- Uploaded to: SVG Repo, www.svgrepo.com, Generator: SVG Repo Mixer Tools -->

<svg
   width="800px"
   height="800px"
   viewBox="0 0 24 24"
   fill="none"
   version="1.1"
   id="svg47"
   sodipodi:docname="floppy-svgrepo-com.svg"
   inkscape:version="1.2.2 (b0a8486541, 2022-12-01)"
   xmlns:inkscape="http://www.inkscape.org/namespaces/inkscape"
   xmlns:sodipodi="http://sodipodi.sourceforge.net/DTD/sodipodi-0.dtd"
   xmlns="http://www.w3.org/2000/svg"
   xmlns:svg="http://www.w3.org/2000/svg">
  <defs
     id="defs51" />
  <sodipodi:namedview
     id="namedview49"
     pagecolor="#505050"
     bordercolor="#eeeeee"
     borderopacity="1"
     inkscape:showpageshadow="0"
     inkscape:pageopacity="0"
     inkscape:pagecheckerboard="0"
     inkscape:deskcolor="#505050"
     showgrid="true"
     inkscape:zoom="3.337544"
     inkscape:cx="369.43333"
     inkscape:cy="218.5739"
     inkscape:window-width="2484"
     inkscape:window-height="1376"
     inkscape:window-x="0"
     inkscape:window-y="0"
     inkscape:window-maximized="1"
     inkscape:current-layer="svg47">
    <inkscape:grid
       type="xygrid"
       id="grid3261" />
  </sodipodi:namedview>
  <path
     fill-rule="evenodd"
     clip-rule="evenodd"
     d="m 13.314,1.99991 c 0.5658,-7.3e-4 1.0673,-0.00138 1.5448,0.16248 0.4776,0.16386 0.873,0.47225 1.3192,0.8202 l 0.0907,0.07066 3.801,2.95634 0.1295,0.1005 c 0.6289,0.48732 1.1878,0.92045 1.4958,1.55004 0.3079,0.62958 0.3066,1.3367 0.3052,2.13227 L 22,9.95635 v 7.10945 c 10e-5,0.8865 10e-5,1.6503 -0.0821,2.262 -0.0882,0.6555 -0.2869,1.2839 -0.7966,1.7935 -0.5096,0.5097 -1.138,0.7084 -1.7935,0.7966 -0.6117,0.0822 -1.3755,0.0822 -2.262,0.0821 H 6.9342 C 6.0477,22.0001 5.28388,22.0001 4.67221,21.9179 4.0167,21.8297 3.38835,21.631 2.87868,21.1213 2.36902,20.6117 2.17028,19.9833 2.08215,19.3278 1.99991,18.7161 1.99995,17.9523 2,17.0659 v -10e-5 0 V 5.96803 C 1.99999,5.52938 1.99998,5.15089 2.02136,4.83763 2.04386,4.5078 2.09336,4.17789 2.22837,3.85196 2.53285,3.11688 3.11687,2.53286 3.85196,2.22837 4.17788,2.09337 4.50779,2.04387 4.83762,2.02136 5.15088,1.99999 5.52937,2 5.96802,2.00001 H 13.199 Z M 12,13 c -1.1046,0 -2,0.8954 -2,2 0,1.1046 0.8954,2 2,2 1.1046,0 2,-0.8954 2,-2 0,-1.1046 -0.8954,-2 -2,-2 z m -4,2 c 0,-2.2091 1.79086,-4 4,-4 2.2091,0 4,1.7909 4,4 0,2.2091 -1.7909,4 -4,4 C 9.79086,19 8,17.2091 8,15 Z M 6.0899205,3.9501731 c -1.2085592,0.026848 -1.9095404,0.3852928 -1.9180152,1.6198467 -0.00847,1.234554 0.7169033,1.6326716 1.9052287,1.6534689 1.1883255,0.020797 4.595683,-0.010799 5.878657,1.03e-5 1.282974,0.01081 2.086019,-0.5368146 2.076592,-1.6534792 C 14.022956,4.4533553 13.097607,3.9776095 11.947582,3.95016 10.71268,3.9206847 7.2984798,3.923325 6.0899205,3.9501731 Z"
     fill="#808080"
     id="path45"
     sodipodi:nodetypes="cccccccccccccccccssccccccccccsssssssssszzzzzsz" />
</svg>
